<?xml version="1.0" encoding="utf-8"?>
<!-- Generator: Adobe Illustrator 23.0.3, SVG Export Plug-In . SVG Version: 6.00 Build 0)  -->
<svg version="1.0" id="Layer_1" xmlns="http://www.w3.org/2000/svg" xmlns:xlink="http://www.w3.org/1999/xlink" x="0px" y="0px"
	 viewBox="0 0 134.6 30.4" style="enable-background:new 0 0 134.6 30.4;" xml:space="preserve">
<style type="text/css">
	.st0{enable-background:new    ;}
	.st1{fill:#1AB2EB;}
</style>
<g class="st0">
	<path class="st1" d="M0.8,11.3c-0.3,0-0.5-0.1-0.6-0.3C0.1,10.8,0,10.6,0,10.3c0-0.3,0.1-0.5,0.3-0.6s0.4-0.2,0.6-0.2L18,10.3
		c0.6,0,0.9,0.4,0.9,0.9c0,0.3-0.1,0.5-0.3,0.6C18.5,12,18.3,12,18.1,12L0.8,11.3z M1.5,27.9c-0.5-1.2-0.8-2.4-0.8-3.5
		c0-1.4,0.2-3.2,0.7-5.1c0.4-1.8,1.4-4.5,2.9-8.2c1.5-3.5,2.9-6,4.2-7.7c2-2.2,3.4-3.3,4.5-3.3c1,0,1.6,0.4,2,1.2
		c0.3,0.5,0.4,1.2,0.4,1.9c0,0.4,0,0.9-0.1,1.4c-0.2,1.1-0.7,2.4-1.6,4c-2.6,4.8-5.3,8.7-8.1,11.7c-1.4,1.6-2.4,2.6-2.9,3.1
		c0,0.3-0.1,0.7-0.1,1c0,0.9,0.2,1.8,0.6,2.7c0.3,0.7,0.8,1.1,1.6,1.2c0.5,0.1,1.1,0.2,1.7,0.2s1.2-0.1,1.8-0.2
		c2.8-0.5,6.4-3.2,10.9-8.1l1.3-1.4c0.2-0.2,0.4-0.3,0.6-0.3c0.2,0,0.4,0.1,0.6,0.2c0.2,0.2,0.3,0.4,0.3,0.7c0,0.2-0.1,0.4-0.2,0.6
		c0,0-0.5,0.5-1.3,1.4c-0.8,0.9-1.9,2-3.1,3.1s-2.5,2.2-3.7,3.1c-1.8,1.3-3.5,2.1-5.1,2.3c-0.8,0.2-1.6,0.2-2.3,0.2
		C3.8,30.3,2.3,29.5,1.5,27.9z M8.3,13.7c1.6-2.5,2.8-4.5,3.6-5.9c0.8-1.5,1.3-2.6,1.4-3.5c0.1-0.4,0.1-0.8,0.1-1.1
		c0-0.9-0.2-1.3-0.6-1.3c-0.5,0-1.5,0.9-3,2.6c-1.2,1.5-2.5,4-4,7.3c-1.7,4.1-2.7,7.1-3,8.8C4.6,18.8,6.3,16.6,8.3,13.7z"/>
	<path class="st1" d="M15.9,28.1v-0.2c0-0.6,0.6-2.2,1.8-4.7c1.4-2.8,2.2-4.6,2.4-5.5c0.1-0.5,0.4-0.7,0.8-0.7
		c0.4,0,0.6,0.1,0.8,0.4c0.1,0.2,0.2,0.3,0.2,0.5c0,0.4-0.3,1.4-1,2.9c3-4.4,4.9-6.7,5.8-6.9l0.3,0c0.5,0,0.8,0.3,1,1l0.1,1.2
		c0.2,2,0.4,3.1,0.9,3.4c0.2,0.1,0.3,0.2,0.5,0.2c0.2,0,0.8-0.2,1.8-0.6c0.4-0.1,0.6-0.2,0.9-0.3s0.4-0.1,0.5-0.2
		c0.1,0,0.1-0.1,0.2-0.1s0,0,0.1,0c0,0,0,0,0.1,0c0.1-0.1,0.3-0.1,0.4-0.1c0.4,0,0.6,0.2,0.8,0.5c0.1,0.1,0.1,0.3,0.1,0.4
		c0,0.4-0.2,0.6-0.5,0.8l-0.2,0.1c-0.4,0.2-1.1,0.4-2.1,0.8l-1,0.4c-0.4,0.2-0.9,0.2-1.2,0.2c-0.4,0-0.8-0.1-1.1-0.4
		c-1-0.7-1.6-2.3-1.8-4.8c-0.9,1.1-2.5,3.5-5.1,7.1c-2.2,3.3-3.6,5.1-4.1,5.3l-0.3,0.1C16.3,28.9,16,28.6,15.9,28.1z"/>
	<path class="st1" d="M43.3,16c0,0.2,0,0.5-0.2,0.7C43,16.9,42.8,17,42.6,17s-0.5,0-0.7-0.2c-0.3-0.3-0.7-0.5-1-0.6
		c-1.1-0.3-2.3,0-3.5,0.7c-1.3,0.8-2.4,1.8-3.3,3.1c-0.9,1.2-1.5,2.3-1.8,3.3c-0.2,0.6-0.2,1.1-0.2,1.5c0,0.2,0.1,0.4,0.2,0.5
		c0.1,0.1,0.2,0.1,0.5,0.1c0.4,0,0.9-0.1,1.7-0.4c1.2-0.6,2.6-1.7,4.2-3.2c1.5-1.5,2.8-2.8,3.7-3.9c0.6-0.7,0.9-1,0.9-1
		c0.2-0.2,0.4-0.3,0.6-0.3s0.4,0,0.6,0.2c0.2,0.1,0.3,0.3,0.3,0.5c0,0.2,0,0.4-0.1,0.6c-0.1,0.2-0.2,0.5-0.4,0.7
		c-0.1,0.3-0.2,0.5-0.3,0.7c-0.8,1.8-1.1,3-1,3.7c0.1,0.4,0.2,0.6,0.5,0.7c0.5,0.1,1.2,0.1,2-0.1c1.4-0.4,2.9-1,4.5-1.9
		s2.9-1.8,4.1-2.7c0.2-0.1,0.4-0.2,0.7-0.2c0.2,0,0.4,0.1,0.6,0.3c0.2,0.2,0.2,0.4,0.2,0.7c0,0.2-0.2,0.4-0.4,0.6
		c-1.2,1-2.7,1.9-4.4,2.9s-3.3,1.6-4.8,2.1c-1.1,0.3-2.1,0.3-2.9,0.1c-1-0.3-1.6-1-1.8-2.1c-0.1-0.4,0-1,0.1-1.6
		c-0.4,0.5-0.9,0.9-1.4,1.4c-1.6,1.6-3.2,2.8-4.7,3.5c-1,0.4-1.8,0.6-2.4,0.6c-0.8,0-1.3-0.2-1.8-0.7c-0.4-0.4-0.6-0.9-0.7-1.6
		c-0.1-0.7,0-1.5,0.3-2.3c0.4-1.2,1.1-2.5,2.1-3.8c1.1-1.4,2.4-2.6,3.9-3.5c1.6-1,3.2-1.3,4.9-0.8c0.6,0.2,1.1,0.5,1.6,0.8
		C43.2,15.6,43.3,15.8,43.3,16z"/>
	<path class="st1" d="M52.8,25.7c0-1.3,0.1-3.1,0.4-5.5c0.4-2.3,0.6-3.8,0.8-4.4c0.1-0.5,0.4-0.7,0.9-0.7c0.3,0,0.5,0.1,0.7,0.4
		c0.1,0.2,0.2,0.3,0.2,0.5c0,0.1,0,0.1,0,0.2c0,0.1-0.2,1.4-0.6,3.9s-0.6,4.1-0.6,4.8c0,0.3,0,0.5,0.1,0.5c0.5-0.3,1-0.5,1.2-0.7
		c0.4-0.3,0.9-0.7,1.5-1.4c1-1,2-2.1,3-3.5c-0.2-0.4-0.4-0.9-0.4-1.5c0-1.3,0.3-2.5,1-3.5c0.6-1.1,1.3-1.8,2.1-2.2
		c0.8-0.4,1.3-0.6,1.7-0.6c0.6,0,0.9,0.3,1.1,0.8c0.1,0.1,0.1,0.3,0.1,0.4c0,1-1.1,3.2-3.2,6.4c0.4,0.1,0.9,0.2,1.6,0.2
		c1.1,0,2.5-0.2,4-0.7s2.6-0.8,3.2-1.1C71.8,18,71.9,18,72,18c0.4,0,0.7,0.2,0.8,0.6c0.1,0.1,0.1,0.2,0.1,0.4c0,0.4-0.2,0.7-0.6,0.8
		c0,0-0.4,0.2-1,0.4c-2.7,1-5,1.6-7,1.6c-1.1,0-1.9-0.2-2.6-0.5c-1,1.3-2,2.5-3,3.5c-1.7,1.6-3.1,2.6-4.3,2.9l-0.3,0
		C53.3,27.6,52.8,27,52.8,25.7z M63.8,14.6c-1,0.5-1.6,1.5-1.8,3.1C62.8,16.5,63.4,15.5,63.8,14.6z"/>
	<path class="st1" d="M74.4,21.7c-1,0.1-1.7,0.1-2.1,0c0,0.3,0,0.5,0,0.7c0,1,0.3,1.8,0.8,2.5c0.4,0.6,1.2,1,2.1,1.1
		c2.5,0.6,7-1.9,13.4-7.5c0.2-0.2,0.4-0.2,0.6-0.2c0.2,0,0.5,0.1,0.6,0.3c0.2,0.2,0.3,0.4,0.2,0.7c0,0.2-0.1,0.5-0.3,0.6
		c-6.9,5.9-11.8,8.6-14.8,8c-1.5-0.2-2.6-0.8-3.4-1.8c-0.7-1-1.1-2.1-1.1-3.5c0-1.5,0.3-3.1,1.1-4.6c0.7-1.5,1.8-2.8,3.2-3.8
		c1.9-1.1,3.5-1.4,4.8-0.8c0.6,0.2,1,0.6,1.3,1.1c0.3,0.5,0.4,1.1,0.4,1.7c-0.1,1.4-1.3,3-3.8,4.7C76.3,21.3,75.3,21.6,74.4,21.7z
		 M74.3,19.9c0.7-0.1,1.4-0.3,2.1-0.7c2-1.3,3-2.4,3-3.3c0-0.2,0-0.4-0.1-0.6c-0.1-0.2-0.3-0.3-0.5-0.4c-0.7-0.3-1.8-0.1-3.1,0.7
		c-1.5,1.1-2.5,2.5-3,4.3C73,20,73.6,20,74.3,19.9z"/>
	<path class="st1" d="M89.8,19.4c-1.3,1.6-2.5,2.7-3.6,3.5l-0.1,1.1c-0.1,1.1,0.1,2.2,0.6,3.2c0.3,0.7,0.8,1.1,1.5,1.3
		c1.1,0.2,2.3,0.2,3.5,0c1.3-0.2,2.8-0.9,4.4-2.1c1.2-0.9,2.3-1.9,3.5-3c1.2-1.1,2.2-2.2,3-3c0.8-0.9,1.2-1.3,1.3-1.4
		c0.2-0.2,0.4-0.3,0.6-0.3c0.2,0,0.5,0.1,0.7,0.2c0.2,0.2,0.3,0.4,0.3,0.6c0,0.2-0.1,0.4-0.2,0.6c0,0.1-0.5,0.5-1.3,1.4
		c-0.8,0.9-1.9,1.9-3.1,3.1s-2.5,2.2-3.7,3.1c-1.8,1.3-3.5,2.1-5,2.3c-1.6,0.3-3,0.3-4.2,0c-1.3-0.3-2.2-1-2.8-2.2
		c-0.6-1.4-0.9-2.8-0.8-4.2l0-0.4c0-0.9,0.2-2.3,0.6-4.1c0.4-1.8,1.4-4.5,2.9-8.2c1.5-3.5,2.9-6,4.2-7.7C94,1.2,95.5,0,96.5,0
		c0.1,0,0.2,0,0.4,0c0.8,0.1,1.3,0.5,1.6,1.2c0.3,0.5,0.4,1.2,0.4,1.9c0,0.4,0,0.9-0.1,1.4c-0.2,1.1-0.8,2.5-1.7,4.3
		c-0.9,1.7-2,3.5-3.3,5.4C92.5,16.1,91.2,17.8,89.8,19.4z M92.3,13.2c1.2-1.8,2.3-3.4,3.2-5c0.9-1.6,1.4-2.9,1.6-3.8
		c0.1-0.4,0.1-0.8,0.1-1.1c0-0.5-0.1-0.8-0.2-1.1c-0.1-0.1-0.2-0.2-0.3-0.2c0,0-0.1,0-0.1,0c-0.6,0-1.6,0.9-3,2.6
		c-1.2,1.5-2.5,4-4,7.3c-1.6,3.8-2.5,6.6-2.9,8.3C88.5,18.3,90.4,16,92.3,13.2z"/>
	<path class="st1" d="M106.7,21.7c-1,0.1-1.7,0.1-2.1,0c0,0.3,0,0.5,0,0.7c0,1,0.3,1.8,0.8,2.5c0.4,0.6,1.2,1,2.1,1.1
		c2.5,0.6,7-1.9,13.4-7.5c0.2-0.2,0.4-0.2,0.6-0.2c0.2,0,0.5,0.1,0.6,0.3c0.2,0.2,0.3,0.4,0.2,0.7c0,0.2-0.1,0.5-0.3,0.6
		c-6.9,5.9-11.8,8.6-14.8,8c-1.5-0.2-2.6-0.8-3.4-1.8c-0.7-1-1.1-2.1-1.1-3.5c0-1.5,0.3-3.1,1.1-4.6c0.7-1.5,1.8-2.8,3.2-3.8
		c1.9-1.1,3.5-1.4,4.8-0.8c0.6,0.2,1,0.6,1.3,1.1c0.3,0.5,0.4,1.1,0.4,1.7c-0.1,1.4-1.3,3-3.8,4.7C108.7,21.3,107.7,21.6,106.7,21.7
		z M106.6,19.9c0.7-0.1,1.4-0.3,2.1-0.7c2-1.3,3-2.4,3-3.3c0-0.2,0-0.4-0.1-0.6c-0.1-0.2-0.3-0.3-0.5-0.4c-0.7-0.3-1.8-0.1-3.1,0.7
		c-1.5,1.1-2.5,2.5-3,4.3C105.4,20,105.9,20,106.6,19.9z"/>
	<path class="st1" d="M116.3,28.1v-0.2c0-0.6,0.6-2.2,1.8-4.7c1.4-2.8,2.2-4.6,2.4-5.5c0.1-0.5,0.4-0.7,0.8-0.7
		c0.4,0,0.6,0.1,0.8,0.4c0.1,0.2,0.2,0.3,0.2,0.5c0,0.4-0.3,1.4-1,2.9c3-4.4,4.9-6.7,5.8-6.9l0.3,0c0.5,0,0.8,0.3,1,1l0.1,1.2
		c0.2,2,0.4,3.1,0.9,3.4c0.2,0.1,0.3,0.2,0.5,0.2c0.2,0,0.8-0.2,1.8-0.6c0.4-0.1,0.6-0.2,0.9-0.3s0.4-0.1,0.5-0.2
		c0.1,0,0.1-0.1,0.2-0.1s0,0,0.1,0c0,0,0,0,0.1,0c0.1-0.1,0.3-0.1,0.4-0.1c0.4,0,0.6,0.2,0.8,0.5c0.1,0.1,0.1,0.3,0.1,0.4
		c0,0.4-0.2,0.6-0.5,0.8l-0.2,0.1c-0.4,0.2-1.1,0.4-2.1,0.8l-1,0.4c-0.4,0.2-0.9,0.2-1.2,0.2c-0.4,0-0.8-0.1-1.1-0.4
		c-1-0.7-1.6-2.3-1.8-4.8c-0.9,1.1-2.5,3.5-5.1,7.1c-2.2,3.3-3.6,5.1-4.1,5.3l-0.3,0.1C116.7,28.9,116.5,28.6,116.3,28.1z"/>
</g>
</svg>
